<mxfile host="app.diagrams.net" modified="2022-04-26T06:53:05.181Z" agent="5.0 (Windows NT 10.0; Win64; x64) AppleWebKit/537.36 (KHTML, like Gecko) Chrome/100.0.4896.127 Safari/537.36" etag="iN1Fgnk4rFBockb5ZcpW" version="17.4.6" type="github">
  <diagram id="yOh_10leExb53cHjMFsN" name="Page-1">
    <mxGraphModel dx="1038" dy="539" grid="1" gridSize="10" guides="1" tooltips="1" connect="1" arrows="1" fold="1" page="1" pageScale="1" pageWidth="850" pageHeight="1100" math="0" shadow="0">
      <root>
        <mxCell id="0" />
        <mxCell id="1" parent="0" />
        <mxCell id="hMpVOAc-jezMKwwIrThi-1" value="&lt;font style=&quot;font-size: 17px&quot;&gt;User&lt;/font&gt;" style="rounded=0;whiteSpace=wrap;html=1;" vertex="1" parent="1">
          <mxGeometry y="80" width="120" height="60" as="geometry" />
        </mxCell>
        <mxCell id="hMpVOAc-jezMKwwIrThi-2" value="&lt;font style=&quot;font-size: 16px&quot;&gt;Web Page&lt;/font&gt;" style="rounded=0;whiteSpace=wrap;html=1;" vertex="1" parent="1">
          <mxGeometry x="290" y="80" width="120" height="60" as="geometry" />
        </mxCell>
        <mxCell id="hMpVOAc-jezMKwwIrThi-3" value="&lt;font style=&quot;font-size: 16px&quot;&gt;Registration&lt;/font&gt;" style="rounded=0;whiteSpace=wrap;html=1;" vertex="1" parent="1">
          <mxGeometry x="580" y="80" width="120" height="60" as="geometry" />
        </mxCell>
        <mxCell id="hMpVOAc-jezMKwwIrThi-4" value="&lt;font style=&quot;font-size: 16px&quot;&gt;Courses&lt;/font&gt;" style="rounded=0;whiteSpace=wrap;html=1;" vertex="1" parent="1">
          <mxGeometry x="160" y="260" width="120" height="60" as="geometry" />
        </mxCell>
        <mxCell id="hMpVOAc-jezMKwwIrThi-5" value="&lt;font style=&quot;font-size: 16px&quot;&gt;Fee Structure&lt;/font&gt;" style="rounded=0;whiteSpace=wrap;html=1;" vertex="1" parent="1">
          <mxGeometry x="430" y="260" width="120" height="60" as="geometry" />
        </mxCell>
        <mxCell id="hMpVOAc-jezMKwwIrThi-7" value="Form" style="rounded=0;whiteSpace=wrap;html=1;fontSize=16;" vertex="1" parent="1">
          <mxGeometry x="580" y="300" width="120" height="60" as="geometry" />
        </mxCell>
        <mxCell id="hMpVOAc-jezMKwwIrThi-8" value="&lt;font style=&quot;font-size: 16px&quot;&gt;Upload Documents&lt;/font&gt;" style="rounded=0;whiteSpace=wrap;html=1;" vertex="1" parent="1">
          <mxGeometry x="580" y="520" width="120" height="60" as="geometry" />
        </mxCell>
        <mxCell id="hMpVOAc-jezMKwwIrThi-9" value="&lt;span style=&quot;color: rgb(38, 38, 38); font-family: &amp;quot;open sans&amp;quot;, sans-serif; font-size: 19px; font-style: normal; letter-spacing: normal; text-align: left; text-indent: 0px; text-transform: none; word-spacing: 0px; background-color: rgb(255, 255, 255); display: inline; float: none;&quot;&gt;Structure chart for a student registration process&lt;/span&gt;" style="text;html=1;strokeColor=none;fillColor=none;align=center;verticalAlign=middle;whiteSpace=wrap;rounded=0;fontSize=19;fontStyle=1" vertex="1" parent="1">
          <mxGeometry x="80" y="490" width="240" height="30" as="geometry" />
        </mxCell>
        <mxCell id="hMpVOAc-jezMKwwIrThi-11" value="&lt;font style=&quot;font-size: 15px&quot;&gt;Visit&lt;/font&gt;" style="html=1;verticalAlign=bottom;startArrow=oval;startFill=0;endArrow=open;startSize=6;endSize=8;rounded=0;fontSize=19;" edge="1" parent="1">
          <mxGeometry y="20" width="80" relative="1" as="geometry">
            <mxPoint x="160" y="100" as="sourcePoint" />
            <mxPoint x="240" y="100" as="targetPoint" />
            <mxPoint as="offset" />
          </mxGeometry>
        </mxCell>
        <mxCell id="hMpVOAc-jezMKwwIrThi-12" value="" style="endArrow=none;html=1;rounded=0;fontSize=19;entryX=0;entryY=0.5;entryDx=0;entryDy=0;" edge="1" parent="1" target="hMpVOAc-jezMKwwIrThi-2">
          <mxGeometry width="50" height="50" relative="1" as="geometry">
            <mxPoint x="120" y="110" as="sourcePoint" />
            <mxPoint x="170" y="60" as="targetPoint" />
          </mxGeometry>
        </mxCell>
        <mxCell id="hMpVOAc-jezMKwwIrThi-13" value="" style="endArrow=none;html=1;rounded=0;fontSize=19;entryX=0;entryY=0.5;entryDx=0;entryDy=0;" edge="1" parent="1">
          <mxGeometry width="50" height="50" relative="1" as="geometry">
            <mxPoint x="410" y="109.5" as="sourcePoint" />
            <mxPoint x="580" y="109.5" as="targetPoint" />
          </mxGeometry>
        </mxCell>
        <mxCell id="hMpVOAc-jezMKwwIrThi-14" value="" style="endArrow=none;html=1;rounded=0;fontSize=19;entryX=0.5;entryY=0;entryDx=0;entryDy=0;exitX=0.5;exitY=1;exitDx=0;exitDy=0;" edge="1" parent="1" source="hMpVOAc-jezMKwwIrThi-3" target="hMpVOAc-jezMKwwIrThi-7">
          <mxGeometry width="50" height="50" relative="1" as="geometry">
            <mxPoint x="620" y="140" as="sourcePoint" />
            <mxPoint x="790" y="140" as="targetPoint" />
          </mxGeometry>
        </mxCell>
        <mxCell id="hMpVOAc-jezMKwwIrThi-15" value="" style="endArrow=none;html=1;rounded=0;fontSize=19;entryX=0.5;entryY=0;entryDx=0;entryDy=0;exitX=0.5;exitY=1;exitDx=0;exitDy=0;" edge="1" parent="1">
          <mxGeometry width="50" height="50" relative="1" as="geometry">
            <mxPoint x="639.5" y="360" as="sourcePoint" />
            <mxPoint x="639.5" y="520" as="targetPoint" />
          </mxGeometry>
        </mxCell>
        <mxCell id="hMpVOAc-jezMKwwIrThi-16" value="" style="shape=rhombus;html=1;dashed=0;whitespace=wrap;perimeter=rhombusPerimeter;fontSize=19;" vertex="1" parent="1">
          <mxGeometry x="330" y="140" width="40" height="30" as="geometry" />
        </mxCell>
        <mxCell id="hMpVOAc-jezMKwwIrThi-17" value="" style="endArrow=none;html=1;rounded=0;fontSize=19;entryX=0.5;entryY=1;entryDx=0;entryDy=0;exitX=1;exitY=0;exitDx=0;exitDy=0;" edge="1" parent="1" source="hMpVOAc-jezMKwwIrThi-4" target="hMpVOAc-jezMKwwIrThi-16">
          <mxGeometry width="50" height="50" relative="1" as="geometry">
            <mxPoint x="240" y="220" as="sourcePoint" />
            <mxPoint x="290" y="170" as="targetPoint" />
          </mxGeometry>
        </mxCell>
        <mxCell id="hMpVOAc-jezMKwwIrThi-18" value="" style="endArrow=none;html=1;rounded=0;fontSize=19;entryX=0.5;entryY=1;entryDx=0;entryDy=0;exitX=0;exitY=0;exitDx=0;exitDy=0;" edge="1" parent="1" source="hMpVOAc-jezMKwwIrThi-5" target="hMpVOAc-jezMKwwIrThi-16">
          <mxGeometry width="50" height="50" relative="1" as="geometry">
            <mxPoint x="460" y="220" as="sourcePoint" />
            <mxPoint x="510" y="170" as="targetPoint" />
          </mxGeometry>
        </mxCell>
        <mxCell id="hMpVOAc-jezMKwwIrThi-19" value="&lt;font style=&quot;font-size: 15px&quot;&gt;Register&lt;/font&gt;&lt;span style=&quot;color: rgba(0 , 0 , 0 , 0) ; font-family: monospace ; font-size: 0px ; background-color: rgb(248 , 249 , 250)&quot;&gt;%3CmxGraphModel%3E%3Croot%3E%3CmxCell%20id%3D%220%22%2F%3E%3CmxCell%20id%3D%221%22%20parent%3D%220%22%2F%3E%3CmxCell%20id%3D%222%22%20value%3D%22Visit%22%20style%3D%22html%3D1%3BverticalAlign%3Dbottom%3BstartArrow%3Doval%3BstartFill%3D0%3BendArrow%3Dopen%3BstartSize%3D6%3BendSize%3D8%3Brounded%3D0%3BfontSize%3D19%3B%22%20edge%3D%221%22%20parent%3D%221%22%3E%3CmxGeometry%20y%3D%2220%22%20width%3D%2280%22%20relative%3D%221%22%20as%3D%22geometry%22%3E%3CmxPoint%20x%3D%22160%22%20y%3D%22100%22%20as%3D%22sourcePoint%22%2F%3E%3CmxPoint%20x%3D%22240%22%20y%3D%22100%22%20as%3D%22targetPoint%22%2F%3E%3CmxPoint%20as%3D%22offset%22%2F%3E%3C%2FmxGeometry%3E%3C%2FmxCell%3E%3C%2Froot%3E%3C%2FmxGraphModel%3E&lt;/span&gt;" style="html=1;verticalAlign=bottom;startArrow=oval;startFill=0;endArrow=open;startSize=6;endSize=8;rounded=0;fontSize=19;" edge="1" parent="1">
          <mxGeometry y="20" width="80" relative="1" as="geometry">
            <mxPoint x="460" y="90" as="sourcePoint" />
            <mxPoint x="540" y="90" as="targetPoint" />
            <mxPoint as="offset" />
          </mxGeometry>
        </mxCell>
        <mxCell id="hMpVOAc-jezMKwwIrThi-20" value="&lt;font style=&quot;font-size: 15px&quot;&gt;Fee Brochure&lt;/font&gt;" style="html=1;verticalAlign=bottom;startArrow=oval;startFill=0;endArrow=open;startSize=6;endSize=8;rounded=0;fontSize=19;" edge="1" parent="1">
          <mxGeometry x="1" y="36" width="80" relative="1" as="geometry">
            <mxPoint x="390" y="180" as="sourcePoint" />
            <mxPoint x="440" y="230" as="targetPoint" />
            <mxPoint x="4" y="5" as="offset" />
          </mxGeometry>
        </mxCell>
        <mxCell id="hMpVOAc-jezMKwwIrThi-21" value="&lt;font style=&quot;font-size: 15px&quot;&gt;Course &lt;br&gt;Catalog&lt;/font&gt;" style="html=1;verticalAlign=bottom;startArrow=oval;startFill=0;endArrow=open;startSize=6;endSize=8;rounded=0;fontSize=19;" edge="1" parent="1">
          <mxGeometry x="0.7705" y="-20" width="80" relative="1" as="geometry">
            <mxPoint x="310" y="180" as="sourcePoint" />
            <mxPoint x="260" y="240" as="targetPoint" />
            <mxPoint as="offset" />
          </mxGeometry>
        </mxCell>
        <mxCell id="hMpVOAc-jezMKwwIrThi-22" value="&lt;span style=&quot;font-size: 15px&quot;&gt;Fill Form&lt;/span&gt;" style="html=1;verticalAlign=bottom;startArrow=oval;startFill=0;endArrow=open;startSize=6;endSize=8;rounded=0;fontSize=19;" edge="1" parent="1">
          <mxGeometry x="0.25" y="40" width="80" relative="1" as="geometry">
            <mxPoint x="670" y="190" as="sourcePoint" />
            <mxPoint x="670" y="270" as="targetPoint" />
            <mxPoint as="offset" />
          </mxGeometry>
        </mxCell>
        <mxCell id="hMpVOAc-jezMKwwIrThi-23" value="&lt;span style=&quot;font-size: 15px&quot;&gt;Submit&lt;/span&gt;" style="html=1;verticalAlign=bottom;startArrow=oval;startFill=0;endArrow=open;startSize=6;endSize=8;rounded=0;fontSize=19;" edge="1" parent="1">
          <mxGeometry x="0.25" y="40" width="80" relative="1" as="geometry">
            <mxPoint x="670" y="400" as="sourcePoint" />
            <mxPoint x="670" y="480" as="targetPoint" />
            <mxPoint as="offset" />
          </mxGeometry>
        </mxCell>
        <mxCell id="hMpVOAc-jezMKwwIrThi-24" value="Maintain Database" style="rounded=1;whiteSpace=wrap;html=1;fontSize=15;" vertex="1" parent="1">
          <mxGeometry x="370" y="520" width="120" height="60" as="geometry" />
        </mxCell>
        <mxCell id="hMpVOAc-jezMKwwIrThi-25" value="" style="endArrow=none;html=1;rounded=0;fontSize=15;entryX=0;entryY=0.5;entryDx=0;entryDy=0;" edge="1" parent="1" target="hMpVOAc-jezMKwwIrThi-8">
          <mxGeometry width="50" height="50" relative="1" as="geometry">
            <mxPoint x="490" y="550" as="sourcePoint" />
            <mxPoint x="540" y="500" as="targetPoint" />
          </mxGeometry>
        </mxCell>
        <mxCell id="hMpVOAc-jezMKwwIrThi-26" value="&lt;span style=&quot;font-size: 15px&quot;&gt;Add to Database&lt;/span&gt;" style="html=1;verticalAlign=bottom;startArrow=oval;startFill=0;endArrow=open;startSize=6;endSize=8;rounded=0;fontSize=19;" edge="1" parent="1">
          <mxGeometry y="-20" width="80" relative="1" as="geometry">
            <mxPoint x="560" y="530" as="sourcePoint" />
            <mxPoint x="500" y="530" as="targetPoint" />
            <mxPoint as="offset" />
          </mxGeometry>
        </mxCell>
        <mxCell id="hMpVOAc-jezMKwwIrThi-27" value="Course&lt;br&gt;Details" style="html=1;verticalAlign=bottom;startArrow=circle;startFill=1;endArrow=open;startSize=6;endSize=8;rounded=0;fontSize=15;" edge="1" parent="1">
          <mxGeometry x="-0.2683" y="-45" width="80" relative="1" as="geometry">
            <mxPoint x="310" y="260" as="sourcePoint" />
            <mxPoint x="350" y="210" as="targetPoint" />
            <mxPoint as="offset" />
          </mxGeometry>
        </mxCell>
        <mxCell id="hMpVOAc-jezMKwwIrThi-28" value="Add to Database" style="html=1;verticalAlign=bottom;startArrow=circle;startFill=1;endArrow=open;startSize=6;endSize=8;rounded=0;fontSize=15;" edge="1" parent="1">
          <mxGeometry y="40" width="80" relative="1" as="geometry">
            <mxPoint x="540" y="130" as="sourcePoint" />
            <mxPoint x="460" y="130" as="targetPoint" />
            <mxPoint as="offset" />
          </mxGeometry>
        </mxCell>
      </root>
    </mxGraphModel>
  </diagram>
</mxfile>
